<?xml version="1.0" standalone="no"?>
<!DOCTYPE svg PUBLIC "-//W3C//DTD SVG 20010904//EN"
 "http://www.w3.org/TR/2001/REC-SVG-20010904/DTD/svg10.dtd">
<svg version="1.0" xmlns="http://www.w3.org/2000/svg"
 width="830.000000pt" height="240.000000pt" viewBox="0 0 830.000000 240.000000"
 preserveAspectRatio="xMidYMid meet">

<g transform="translate(0.000000,240.000000) scale(0.100000,-0.100000)"
fill="#000000" stroke="none">
<path d="M5235 1610 l0 -685 113 0 113 0 -2 285 c-1 294 1 319 33 382 50 101
190 82 230 -31 14 -38 16 -484 3 -586 l-6 -50 121 0 121 0 -3 345 c-4 395 -4
398 -88 473 -107 96 -238 88 -362 -22 -48 -43 -60 -49 -54 -28 3 6 7 143 10
304 l6 292 -117 3 -118 3 0 -685z"/>
<path d="M984 2205 c-15 -47 -24 -88 -21 -92 4 -3 9 2 12 11 3 9 7 23 10 31 7
24 62 19 76 -7 16 -30 14 -29 31 -23 12 5 6 21 -26 85 -23 44 -44 80 -48 80
-4 0 -19 -38 -34 -85z m56 -17 c0 -5 -11 -8 -25 -8 -17 0 -23 4 -20 15 17 52
16 51 30 25 8 -14 14 -28 15 -32z"/>
<path d="M1149 2221 c-1 -39 -2 -77 -3 -83 -1 -9 17 -14 52 -16 47 -3 56 0 82
27 35 35 39 77 11 112 -14 18 -31 23 -80 27 l-61 4 -1 -71z m103 42 c43 -39
10 -133 -47 -133 -23 0 -25 4 -25 44 0 74 10 106 33 106 11 0 29 -7 39 -17z"/>
<path d="M780 2249 c-13 -6 -26 -12 -28 -14 -8 -8 32 -155 42 -155 29 0 89 23
107 41 25 25 25 79 -2 113 -22 28 -70 34 -119 15z m80 -19 c45 -45 32 -122
-22 -128 -25 -3 -27 1 -38 55 -7 31 -14 63 -17 69 -4 11 13 20 45 23 6 0 21
-8 32 -19z"/>
<path d="M4929 2227 c-27 -22 -239 -290 -239 -301 0 -3 18 -6 41 -6 35 0 59
12 165 86 68 47 133 95 144 106 29 31 28 102 -2 122 -32 23 -79 20 -109 -7z"/>
<path d="M1456 2171 c-31 -39 -52 -72 -47 -75 5 -3 16 5 25 19 14 21 19 23 45
14 22 -8 31 -18 33 -37 2 -16 10 -28 21 -30 14 -3 17 1 13 20 -3 13 -8 53 -11
91 -4 37 -10 67 -15 67 -4 0 -33 -31 -64 -69z m50 -26 c-3 -8 -13 -11 -25 -8
-25 6 -26 11 -4 35 15 17 18 17 26 3 5 -9 6 -22 3 -30z"/>
<path d="M645 2199 c-6 -9 38 -132 54 -151 4 -4 12 -4 19 1 9 5 5 26 -19 84
-31 75 -41 88 -54 66z"/>
<path d="M1631 2114 c-23 -37 -40 -71 -38 -77 2 -6 17 12 33 41 16 29 32 52
36 52 3 0 12 -31 19 -69 14 -82 25 -104 39 -81 5 8 24 40 44 70 19 30 32 58
29 63 -3 5 -19 -15 -36 -45 l-31 -53 -19 83 c-11 45 -23 82 -27 82 -4 0 -26
-30 -49 -66z"/>
<path d="M3103 2172 l-62 -3 -32 -97 c-55 -168 -146 -415 -285 -772 -74 -190
-134 -351 -134 -358 0 -12 14 -14 99 -14 l45 -1 22 84 c13 46 38 129 56 184
l33 100 186 3 c141 2 189 -1 196 -10 12 -14 59 -158 93 -283 l22 -80 139 0
c76 0 139 1 139 1 0 1 -23 62 -51 135 -89 234 -198 535 -301 829 -55 157 -100
285 -101 285 -1 0 -30 -1 -64 -3z m23 -568 c35 -102 64 -189 64 -195 0 -5 -64
-9 -151 -9 l-151 0 7 28 c8 31 132 370 142 385 9 15 19 -9 89 -209z"/>
<path d="M522 2144 c-47 -33 -7 -103 50 -89 16 4 29 1 37 -9 19 -22 6 -46 -24
-46 -14 0 -25 -4 -25 -10 0 -18 28 -11 57 14 24 21 26 27 18 52 -9 26 -16 29
-58 32 -33 2 -50 8 -54 19 -7 17 24 46 38 37 5 -3 9 0 9 5 0 16 -22 13 -48 -5z"/>
<path d="M370 2034 c-17 -15 -30 -30 -28 -34 2 -4 27 -33 56 -65 38 -41 56
-55 64 -47 7 7 4 18 -11 38 -12 15 -20 29 -18 31 2 2 22 -3 45 -11 35 -13 42
-13 52 0 10 11 9 15 -1 18 -8 2 -27 9 -44 14 -23 7 -29 14 -27 31 4 27 -14 51
-38 51 -10 0 -32 -12 -50 -26z m52 -11 c10 -9 18 -22 18 -29 0 -24 -22 -26
-46 -3 -18 17 -21 25 -13 36 15 17 19 16 41 -4z"/>
<path d="M1949 2019 c16 -6 28 -6 35 1 7 7 -1 10 -24 9 -33 0 -34 -1 -11 -10z"/>
<path d="M1885 1999 c-11 -5 -47 -21 -80 -35 -33 -15 -55 -29 -48 -31 7 -2 22
1 34 7 18 10 25 9 42 -9 17 -17 19 -24 9 -45 -9 -19 -8 -27 3 -36 12 -10 16
-8 24 11 5 13 21 50 35 82 14 32 26 60 26 62 0 8 -23 5 -45 -6z m-5 -32 c0 -7
-6 -21 -13 -31 -12 -17 -14 -17 -27 -1 -12 15 -12 19 5 31 24 18 35 18 35 1z"/>
<path d="M258 1906 l-28 -35 58 -44 c80 -61 77 -61 107 -21 30 39 27 61 -3 24
-18 -22 -19 -22 -46 -5 -25 17 -26 19 -10 36 9 10 14 24 12 31 -3 8 -9 5 -17
-10 -14 -26 -33 -28 -51 -7 -10 12 -9 20 4 40 24 37 5 30 -26 -9z"/>
<path d="M1952 1843 c-57 -36 -70 -48 -62 -58 9 -11 18 -10 46 7 19 11 36 19
38 17 16 -21 36 -55 36 -61 0 -4 -15 -15 -32 -24 -43 -22 -43 -21 -29 -38 10
-12 22 -8 79 27 37 22 68 42 70 42 1 1 0 10 -4 19 -6 15 -9 15 -30 1 -33 -21
-41 -19 -60 17 -13 26 -14 32 -3 39 38 23 41 27 33 41 -7 12 -22 7 -82 -29z"/>
<path d="M190 1803 c0 -6 4 -14 9 -18 5 -3 24 -24 42 -47 l33 -41 -66 5 c-54
5 -68 3 -73 -10 -3 -8 -4 -16 -3 -17 9 -7 178 -14 181 -8 3 5 -24 40 -59 78
-35 39 -64 65 -64 58z"/>
<path d="M4015 1786 c-27 -12 -70 -44 -95 -70 -25 -25 -47 -46 -50 -46 -3 0
-3 27 -2 59 l4 59 -110 0 -110 1 -1 -432 -1 -432 113 0 114 0 -1 295 c-1 328
4 363 65 415 42 35 106 35 148 -1 57 -48 65 -99 59 -424 l-5 -285 113 0 114 0
0 345 c0 342 0 345 -24 395 -60 127 -205 180 -331 121z"/>
<path d="M4693 1795 c-70 -19 -133 -50 -171 -83 -31 -27 -31 -28 -21 -77 6
-27 12 -51 14 -53 1 -1 17 12 36 29 74 70 185 92 253 50 38 -24 76 -91 76
-135 0 -62 -25 -79 -169 -120 -208 -60 -271 -124 -271 -273 1 -111 48 -186
139 -218 96 -33 207 -4 269 71 17 21 33 36 35 33 2 -2 14 -21 27 -43 45 -75
145 -95 240 -46 50 26 56 60 10 60 -21 0 -35 8 -47 27 -16 25 -18 56 -18 313
0 256 -2 289 -19 328 -23 52 -83 106 -145 127 -66 23 -175 28 -238 10z m185
-565 c-6 -151 -41 -210 -126 -210 -95 0 -125 193 -44 280 15 16 59 42 97 58
l70 29 3 -26 c2 -14 2 -73 0 -131z"/>
<path d="M7113 1795 c-58 -16 -122 -46 -166 -79 -27 -20 -28 -24 -22 -70 3
-28 9 -54 11 -58 3 -5 24 8 46 28 99 89 225 90 291 2 12 -16 22 -48 25 -81 6
-78 -5 -85 -214 -146 -143 -42 -212 -115 -221 -235 -12 -141 63 -237 197 -253
76 -9 135 12 194 69 42 40 52 46 59 33 22 -40 71 -85 104 -96 39 -13 93 -7
153 17 31 13 40 22 40 40 0 18 -5 24 -22 24 -67 1 -72 26 -69 328 2 306 -4
344 -66 403 -47 45 -82 63 -151 78 -69 14 -124 13 -189 -4z m188 -527 c-3
-177 -28 -234 -107 -245 -33 -4 -45 -1 -70 20 -27 24 -29 31 -32 109 -4 118 9
141 119 194 46 23 86 40 88 38 2 -2 3 -54 2 -116z"/>
<path d="M7876 1789 c-142 -49 -234 -154 -271 -311 -52 -222 35 -455 200 -533
116 -54 277 -56 384 -3 39 20 49 31 68 78 29 74 16 91 -37 49 -102 -83 -247
-68 -320 32 -47 66 -63 130 -64 254 0 120 14 194 50 267 77 153 259 133 308
-34 20 -72 40 -61 75 43 17 50 28 96 25 101 -3 4 -22 17 -43 27 -103 53 -270
66 -375 30z"/>
<path d="M6070 1451 c0 -277 3 -346 15 -382 37 -103 120 -159 239 -159 87 0
137 22 200 90 26 28 48 50 49 50 2 0 1 -28 -1 -62 l-4 -63 111 0 111 0 0 432
0 432 -114 0 -114 0 5 -258 c8 -349 -9 -432 -94 -467 -51 -22 -95 -11 -132 31
-50 57 -54 90 -49 407 l5 287 -113 0 -114 0 0 -338z"/>
<path d="M2080 1650 c-67 -21 -93 -52 -82 -94 4 -16 19 -38 33 -48 23 -17 27
-17 92 -1 37 9 64 20 60 24 -5 5 -36 1 -69 -8 -70 -19 -91 -14 -100 22 -9 36
10 53 78 72 32 9 58 22 58 29 0 21 -12 22 -70 4z"/>
<path d="M103 1594 c-7 -19 -10 -18 76 -43 59 -18 76 -20 82 -10 4 8 7 14 6
16 -1 1 -38 13 -80 27 -66 20 -79 22 -84 10z"/>
<path d="M658 1389 c-237 -207 -214 -180 -183 -217 15 -18 30 -32 35 -32 4 0
93 76 198 169 l190 168 -25 32 c-13 17 -28 31 -33 31 -5 0 -87 -68 -182 -151z"/>
<path d="M75 1490 c-3 -5 20 -12 50 -15 30 -4 55 -11 55 -15 0 -4 -29 -27 -65
-50 -36 -23 -65 -46 -65 -50 0 -4 33 -13 73 -20 39 -7 78 -15 85 -17 6 -3 12
0 12 6 0 5 -23 13 -50 17 -28 4 -53 10 -55 14 -3 4 24 27 60 50 58 38 79 60
58 60 -5 0 -41 6 -81 14 -40 7 -74 10 -77 6z"/>
<path d="M1351 1304 l-191 -166 27 -33 c16 -19 31 -34 34 -34 6 -1 134 111
353 306 l38 35 -28 29 c-15 16 -31 29 -35 29 -4 0 -93 -75 -198 -166z"/>
<path d="M745 1274 c-104 -92 -191 -172 -193 -178 -1 -7 11 -24 27 -40 l30
-28 188 167 c103 92 189 170 190 173 1 4 -10 22 -25 39 l-27 33 -190 -166z"/>
<path d="M2030 1429 c0 -5 14 -12 30 -15 26 -6 30 -11 30 -40 0 -24 -5 -34
-20 -39 -16 -5 -30 -45 -16 -45 13 0 156 83 156 90 0 9 -2 10 -107 39 -40 11
-73 15 -73 10z m119 -38 c11 -7 10 -11 -7 -20 -30 -16 -42 -14 -42 9 0 21 24
27 49 11z"/>
<path d="M1455 1203 c-104 -91 -190 -168 -190 -172 0 -3 12 -22 27 -40 l26
-34 179 158 c98 87 186 165 196 174 16 16 16 18 -15 48 l-33 32 -190 -166z"/>
<path d="M845 1164 c-104 -91 -191 -168 -192 -172 -1 -4 10 -22 26 -41 l28
-34 189 167 c104 93 190 173 192 180 1 6 -10 24 -25 38 l-28 27 -190 -165z"/>
<path d="M50 1261 c0 -7 21 -11 58 -11 89 0 126 -36 82 -80 -16 -16 -33 -20
-80 -20 -47 0 -60 -3 -60 -15 0 -12 14 -15 69 -15 61 0 72 3 85 22 21 30 20
71 -2 98 -14 17 -32 23 -85 27 -47 4 -67 2 -67 -6z"/>
<path d="M2101 1259 c-13 -5 -30 -17 -37 -27 -16 -20 -18 -98 -4 -107 6 -4 7
5 4 23 -8 42 10 70 50 78 48 8 90 -13 94 -49 2 -16 -2 -35 -9 -43 -9 -11 -8
-14 5 -14 16 0 20 18 16 70 -3 50 -69 88 -119 69z"/>
<path d="M1560 1099 c-102 -89 -189 -165 -193 -169 -5 -4 6 -24 23 -43 l31
-36 194 172 193 171 -25 33 c-14 18 -28 33 -32 33 -4 0 -90 -72 -191 -161z"/>
<path d="M101 1046 c-28 -33 22 -83 55 -55 8 7 14 24 12 38 -2 20 -9 27 -29
29 -14 2 -31 -4 -38 -12z"/>
<path d="M2097 1053 c-12 -12 -7 -50 8 -63 32 -27 82 23 55 55 -13 15 -51 20
-63 8z"/>
<path d="M162 882 c-63 -47 -67 -63 -12 -60 23 1 24 1 3 5 -33 6 -29 14 27 51
28 17 50 37 50 42 0 13 4 15 -68 -38z"/>
<path d="M2049 886 c28 -30 33 -32 25 -12 -5 13 2 13 50 2 31 -8 56 -9 56 -5
0 5 -2 9 -4 9 -9 0 -113 21 -131 26 -18 6 -18 4 4 -20z"/>
<path d="M2108 838 l24 -26 -29 -5 c-15 -3 -46 -9 -68 -13 -32 -5 -36 -8 -20
-14 11 -4 22 -3 23 1 2 5 22 9 45 9 64 0 73 11 35 46 -29 25 -30 26 -10 2z"/>
<path d="M223 813 c9 -2 23 -2 30 0 6 3 -1 5 -18 5 -16 0 -22 -2 -12 -5z"/>
<path d="M203 751 c-35 -14 -63 -30 -63 -34 0 -5 3 -7 8 -5 4 2 35 14 70 28
34 14 62 28 62 32 0 11 -7 9 -77 -21z"/>
<path d="M2090 745 c14 -8 32 -14 40 -14 8 0 0 6 -19 14 -42 19 -54 19 -21 0z"/>
<path d="M1971 726 c2 -2 15 -9 29 -15 24 -11 24 -11 6 3 -16 13 -49 24 -35
12z"/>
<path d="M278 709 c-10 -5 -15 -16 -12 -23 3 -7 -6 -41 -20 -75 -25 -63 -24
-72 10 -45 10 8 13 13 7 9 -17 -8 -17 -6 12 71 14 37 24 68 23 70 -2 1 -11 -2
-20 -7z"/>
<path d="M5746 704 c-19 -18 -20 -28 -6 -55 23 -41 78 -4 62 41 -11 31 -34 37
-56 14z"/>
<path d="M5199 700 c-24 -14 -112 -130 -98 -130 13 0 119 76 131 94 19 28 -4
52 -33 36z"/>
<path d="M2053 680 c42 -33 32 -90 -17 -90 -10 0 -39 12 -63 26 -25 14 -47 24
-49 21 -9 -8 88 -59 113 -59 27 0 52 27 53 58 0 20 -20 44 -50 58 -8 4 -3 -2
13 -14z"/>
<path d="M4440 681 c0 -12 -13 -139 -30 -283 -16 -144 -30 -265 -30 -270 0 -4
9 -8 20 -8 25 0 27 7 41 233 7 103 15 187 18 187 3 0 44 -90 90 -200 46 -110
87 -200 91 -200 3 0 46 92 95 205 48 113 89 204 91 202 4 -3 34 -362 34 -403
0 -21 5 -24 36 -24 37 0 37 0 31 38 -3 20 -16 151 -28 290 -14 152 -28 252
-34 252 -5 0 -53 -97 -105 -216 -52 -119 -98 -217 -101 -219 -3 -2 -48 93
-100 212 -88 202 -119 255 -119 204z"/>
<path d="M184 654 c-18 -14 -18 -15 4 -4 12 6 22 13 22 15 0 8 -5 6 -26 -11z"/>
<path d="M325 610 c-3 -6 1 -7 9 -4 18 7 21 14 7 14 -6 0 -13 -4 -16 -10z"/>
<path d="M319 531 c-19 -19 -29 -39 -28 -58 0 -28 0 -27 12 7 7 21 25 42 46
54 32 19 35 19 65 3 l31 -17 -24 20 c-33 28 -67 25 -102 -9z"/>
<path d="M1850 547 c0 -6 122 -99 124 -95 0 2 10 14 21 28 l20 25 -22 -19
c-22 -19 -23 -18 -76 23 -49 37 -67 47 -67 38z"/>
<path d="M5073 499 c-49 -31 -73 -91 -73 -180 1 -130 58 -203 160 -203 58 0
114 30 119 64 3 24 2 24 -17 7 -30 -28 -80 -38 -125 -26 -31 8 -42 18 -58 52
-10 23 -19 59 -19 79 l0 38 118 -3 117 -2 -3 45 c-4 53 -33 112 -64 134 -33
23 -116 20 -155 -5z m112 -9 c29 -11 55 -63 55 -110 l0 -30 -90 0 c-90 0 -90
0 -90 25 0 37 37 104 63 115 29 12 31 12 62 0z"/>
<path d="M5350 513 c0 -1 25 -41 56 -89 30 -47 58 -92 61 -99 2 -8 -23 -53
-56 -101 -34 -48 -61 -91 -61 -96 0 -4 9 -8 19 -8 14 0 34 24 68 80 26 44 50
80 53 80 3 0 26 -35 51 -77 40 -69 49 -78 77 -81 18 -2 32 0 32 4 0 4 -27 51
-60 104 -33 53 -60 102 -60 107 0 6 25 46 56 88 42 59 52 80 42 86 -7 5 -15 9
-18 9 -3 0 -27 -36 -54 -80 -27 -44 -50 -80 -51 -80 -5 0 -73 118 -79 137 -5
15 -15 19 -41 19 -19 -1 -35 -2 -35 -3z"/>
<path d="M5740 320 l0 -200 25 0 25 0 0 200 0 200 -25 0 -25 0 0 -200z"/>
<path d="M6015 508 c-72 -25 -114 -97 -115 -195 0 -34 5 -74 11 -90 23 -62 95
-113 159 -113 45 0 99 26 109 52 9 25 5 39 -7 22 -27 -40 -89 -54 -137 -32
-60 27 -91 155 -60 247 30 92 107 120 167 61 16 -16 31 -30 33 -30 1 0 5 13 7
30 4 26 0 31 -34 45 -44 17 -89 18 -133 3z"/>
<path d="M6329 497 c-100 -68 -118 -255 -32 -341 53 -53 156 -57 215 -8 92 78
89 275 -7 350 -40 31 -129 31 -176 -1z m147 -28 c61 -57 58 -230 -5 -301 -46
-52 -114 -39 -145 27 -51 106 -16 268 64 298 23 9 63 -2 86 -24z"/>
<path d="M435 415 l-48 -56 23 -24 c13 -14 26 -23 28 -20 3 2 -5 13 -17 22
l-22 18 25 24 c22 21 28 22 43 11 17 -13 17 -13 1 5 -17 18 -17 20 4 42 12 13
19 25 16 28 -3 3 -27 -19 -53 -50z"/>
<path d="M1790 454 c0 -8 4 -12 10 -9 5 3 34 -8 64 -25 30 -16 57 -26 60 -22
4 7 -113 72 -129 72 -3 0 -5 -7 -5 -16z"/>
<path d="M500 456 c0 -2 8 -10 18 -17 15 -13 16 -12 3 4 -13 16 -21 21 -21 13z"/>
<path d="M1821 401 c-10 -7 -11 -12 -1 -27 8 -14 10 -14 7 -3 -3 9 0 22 6 28
13 13 7 14 -12 2z"/>
<path d="M1700 380 c0 -11 4 -20 10 -20 5 0 22 -18 36 -40 15 -22 31 -40 36
-40 5 0 -10 27 -32 60 -22 33 -43 60 -45 60 -3 0 -5 -9 -5 -20z"/>
<path d="M585 313 c-16 -32 -31 -61 -33 -65 -2 -5 0 -8 5 -8 7 0 41 58 71 123
2 4 0 7 -5 7 -5 0 -22 -26 -38 -57z"/>
<path d="M667 321 c-3 -12 -2 -19 3 -16 7 4 13 -11 50 -109 6 -16 13 -26 16
-23 6 6 -43 145 -56 160 -4 5 -10 -1 -13 -12z"/>
<path d="M1600 333 c0 -13 14 -28 29 -31 7 -1 28 -14 46 -27 37 -29 47 -31 39
-10 -4 8 -10 15 -16 15 -5 0 -24 11 -41 24 -44 32 -57 39 -57 29z"/>
<path d="M775 299 c-4 -6 -5 -12 -2 -15 2 -3 7 2 10 11 7 17 1 20 -8 4z"/>
<path d="M1376 268 c-32 -45 -6 -128 39 -128 6 1 2 5 -7 11 -37 21 -42 118 -6
132 9 4 9 6 1 6 -6 1 -19 -9 -27 -21z"/>
<path d="M1483 249 c17 -35 19 -47 9 -71 -9 -25 -9 -28 4 -18 19 16 18 80 -2
108 -26 37 -33 25 -11 -19z"/>
<path d="M887 258 c-3 -13 -8 -48 -12 -78 -4 -41 -3 -49 4 -33 6 13 13 44 16
69 3 26 8 50 11 55 3 5 1 9 -4 9 -6 0 -12 -10 -15 -22z"/>
<path d="M948 245 c3 -19 -1 -27 -19 -34 -13 -5 -19 -10 -12 -10 7 -1 17 -10
23 -21 8 -15 6 -24 -10 -40 -22 -22 -19 -25 11 -10 21 12 26 56 7 63 -10 3 -8
9 5 24 10 11 15 27 11 37 -10 25 -22 19 -16 -9z"/>
<path d="M1302 245 c0 -16 2 -22 5 -12 2 9 2 23 0 30 -3 6 -5 -1 -5 -18z"/>
<path d="M632 231 c-6 -17 -9 -31 -6 -31 7 0 25 52 20 57 -2 2 -8 -10 -14 -26z"/>
<path d="M1027 242 c-25 -28 -22 -94 5 -118 l22 -19 -17 25 c-26 38 -18 99 17
122 8 6 8 8 0 8 -6 0 -18 -8 -27 -18z"/>
<path d="M1120 240 c24 -24 26 -77 5 -108 -13 -17 -13 -21 -2 -16 17 6 37 47
37 73 0 20 -36 71 -51 71 -5 0 0 -9 11 -20z"/>
<path d="M1190 253 c0 -16 124 -134 129 -122 1 6 1 11 -1 12 -2 1 -32 29 -66
62 -34 33 -62 54 -62 48z"/>
<path d="M1640 231 c0 -6 4 -13 10 -16 6 -3 7 1 4 9 -7 18 -14 21 -14 7z"/>
<path d="M1203 145 c0 -22 2 -30 4 -17 2 12 2 30 0 40 -3 9 -5 -1 -4 -23z"/>
</g>
</svg>
